HIERARCHY
ROOT Hips
{
	OFFSET 0.000000 0.000000 0.000000 
	CHANNELS 6 Xposition Yposition Zposition Zrotation Yrotation Xrotation
	JOINT LeftUpLeg
	{
		OFFSET 1.363060 -1.794630 0.839290 
		CHANNELS 3 Zrotation Yrotation Xrotation
		JOINT LeftLeg
		{
			OFFSET 2.448110 -6.726130 0.000000 
			CHANNELS 3 Zrotation Yrotation Xrotation
			JOINT LeftFoot
			{
				OFFSET 2.562200 -7.039590 0.000000 
				CHANNELS 3 Zrotation Yrotation Xrotation
				JOINT LeftToeBase
				{
					OFFSET 0.157640 -0.433110 2.322550 
					CHANNELS 3 Zrotation Yrotation Xrotation
					End Site
					{
						OFFSET 0.000000 0.000000 0.000000 
					}
				}
			}
		}
	}
	JOINT RightUpLeg
	{
		OFFSET -1.305520 -1.794630 0.839290 
		CHANNELS 3 Zrotation Yrotation Xrotation
		JOINT RightLeg
		{
			OFFSET -2.542530 -6.985550 0.000000 
			CHANNELS 3 Zrotation Yrotation Xrotation
			JOINT RightFoot
			{
				OFFSET -2.568260 -7.056230 0.000000 
				CHANNELS 3 Zrotation Yrotation Xrotation
				JOINT RightToeBase
				{
					OFFSET -0.164730 -0.452590 2.363150 
					CHANNELS 3 Zrotation Yrotation Xrotation
					End Site
					{
						OFFSET 0.000000 0.000000 0.000000 
					}
				}
			}
		}
	}
	JOINT Spine
	{
		OFFSET 0.028270 2.035590 -0.193380 
		CHANNELS 3 Zrotation Yrotation Xrotation
		JOINT Spine1
		{
			OFFSET 0.056720 2.048850 -0.042750 
			CHANNELS 3 Zrotation Yrotation Xrotation
			JOINT Neck1
			{
				OFFSET -0.054170 1.746240 0.172020 
				CHANNELS 3 Zrotation Yrotation Xrotation
				JOINT Head
				{
					OFFSET 0.104070 1.761360 -0.123970 
					CHANNELS 3 Zrotation Yrotation Xrotation
					End Site
					{
						OFFSET 0.000000 0.000000 0.000000 
					}
				}
			}
			JOINT LeftArm
			{
				OFFSET 3.362410 1.200890 -0.311210 
				CHANNELS 3 Zrotation Yrotation Xrotation
				JOINT LeftForeArm
				{
					OFFSET 4.983000 -0.000000 -0.000000 
					CHANNELS 3 Zrotation Yrotation Xrotation
					JOINT LeftHand
					{
						OFFSET 3.483560 -0.000000 -0.000000 
						CHANNELS 3 Zrotation Yrotation Xrotation
						JOINT LeftHandIndex1
						{
							OFFSET 0.715260 -0.000000 -0.000000 
							CHANNELS 3 Zrotation Yrotation Xrotation
							End Site
							{
								OFFSET 0.000000 0.000000 0.000000 
							}
						}
					}
				}
			}
			JOINT RightArm
			{
				OFFSET -3.136600 1.374050 -0.404650 
				CHANNELS 3 Zrotation Yrotation Xrotation
				JOINT RightForeArm
				{
					OFFSET -5.241900 -0.000000 -0.000000 
					CHANNELS 3 Zrotation Yrotation Xrotation
					JOINT RightHand
					{
						OFFSET -3.444170 -0.000000 -0.000000 
						CHANNELS 3 Zrotation Yrotation Xrotation
						JOINT RightHandIndex1
						{
							OFFSET -0.622530 -0.000000 -0.000000 
							CHANNELS 3 Zrotation Yrotation Xrotation
							End Site
							{
								OFFSET 0.000000 0.000000 0.000000 
							}
						}
					}
				}
			}
		}
	}
}
MOTION
Frames: 10
Frame Time: 0.041667
-0.622255 18.497082 5.132848 -0.368794 -3.532341 11.196575 -16.437882 -2.629510 -24.537658 1.521426 7.880286 25.496086 -0.779103 5.471767 -7.691673 8.431000 -16.427300 -54.100800 14.049941 12.534505 -6.953899 0.413115 0.752102 1.416440 1.233051 -11.202760 -14.052573 -0.273900 3.366400 -9.300500 10.288107 -5.585875 34.488954 -1.631343 -1.140188 -28.944621 9.307201 -6.922847 0.979556 2.733200 -3.346400 3.288000 -69.759034 -53.205036 47.459543 146.123194 -40.597692 -106.450624 -0.559002 1.125892 5.058107 -7.125000 0.000000 0.000000 40.612613 42.929968 3.128286 -149.460397 37.405256 -108.278343 0.767389 2.246274 8.936807 7.125000 0.000000 0.000000 
-0.626174 18.498062 5.112370 -0.317906 -3.133447 11.132445 -16.515766 -2.744700 -24.449700 1.507659 7.821789 25.364352 -0.775110 5.404529 -7.486628 8.465100 -16.450900 -54.221200 14.018845 12.179570 -6.992480 0.411296 0.741195 1.413491 1.222419 -11.144295 -14.027562 -0.265400 3.313900 -9.154100 11.013944 -5.803573 34.534118 -1.678093 -1.188148 -28.953021 9.209422 -7.087591 2.013650 2.740600 -3.389200 3.584700 -69.325017 -55.376239 46.418678 144.448997 -41.730922 -105.308135 -0.531684 1.089264 5.445473 -7.125000 0.000000 0.000000 37.199725 43.739369 0.087977 -147.745769 38.791917 -107.026993 0.821437 2.124112 10.251680 7.125000 0.000000 0.000000 
-0.632053 18.498650 5.091109 -0.218240 -2.774295 11.103080 -16.643801 -2.824528 -24.442346 1.503837 7.781966 25.286097 -0.760502 5.287234 -7.255720 8.519300 -16.488200 -54.412200 13.943007 11.870127 -7.078308 0.410942 0.728606 1.408826 1.238161 -11.215668 -13.971579 -0.303400 3.541700 -9.790700 11.710175 -6.009025 34.582775 -1.683647 -1.215845 -28.899291 9.241493 -7.298545 3.033639 2.791300 -3.455500 3.903500 -68.751100 -57.406624 45.270608 142.621267 -42.881879 -104.029306 -0.517809 1.059619 5.700877 -7.125000 0.000000 0.000000 33.765055 44.324669 -2.845876 -146.027121 40.089219 -105.736092 0.873047 1.988910 11.222001 7.125000 0.000000 0.000000 
-0.639695 18.497474 5.067594 -0.147496 -2.444259 11.107238 -16.736737 -2.897807 -24.510385 1.507667 7.758655 25.250797 -0.736095 5.124774 -7.014711 8.530700 -16.496100 -54.452700 13.894069 11.612554 -7.206255 0.411229 0.714552 1.403141 1.252959 -11.295922 -13.948289 -0.332200 3.704300 -10.246300 12.424352 -6.203753 34.541212 -1.677605 -1.243994 -28.897714 8.941179 -7.357998 3.437259 2.742000 -3.479800 3.990100 -68.210509 -59.269660 44.338901 140.500366 -44.143270 -102.492580 -0.516052 1.032813 6.345872 -7.125000 0.000000 0.000000 30.530353 44.577597 -5.479877 -144.320302 41.285715 -104.415822 0.916105 1.858319 12.049520 7.125000 0.000000 0.000000 
-0.647338 18.496005 5.040651 -0.030088 -2.213719 11.105576 -16.824810 -2.939698 -24.648148 1.510338 7.756085 25.231308 -0.709464 4.958569 -6.751585 8.497500 -16.473200 -54.335400 13.842460 11.393029 -7.330439 0.411879 0.713987 1.403187 1.256670 -11.323957 -13.975096 -0.310500 3.582400 -9.904500 12.492373 -6.185111 34.566336 -1.853140 -1.291612 -29.126714 9.400609 -7.476901 3.889791 2.901800 -3.519700 4.096500 -67.561385 -61.157207 43.729888 138.128194 -45.452459 -100.718097 -0.512676 0.998039 7.499027 -7.125000 0.000000 0.000000 27.445347 44.585907 -8.019076 -142.400704 42.558239 -102.883746 1.007543 1.746985 12.950081 7.125000 0.000000 0.000000 
-0.653412 18.496005 5.011257 0.109662 -2.031918 11.104485 -16.928517 -2.955702 -24.818971 1.510867 7.757313 25.207349 -0.686862 4.812495 -6.468752 8.482700 -16.463000 -54.283100 13.781459 11.201466 -7.463687 0.413604 0.718967 1.405603 1.270387 -11.399944 -14.001307 -0.271500 3.351900 -9.260000 12.293613 -6.092406 34.752702 -2.017288 -1.336572 -29.294854 9.856548 -7.696945 4.635048 3.041900 -3.588900 4.341400 -66.773659 -63.190837 43.003146 135.535369 -46.718852 -98.743142 -0.508326 0.955768 8.441457 -7.125000 0.000000 0.000000 24.145114 44.648362 -10.714988 -140.251338 43.872986 -101.115287 1.115663 1.643956 13.991012 7.125000 0.000000 0.000000 
-0.657233 18.496592 4.981276 0.224564 -1.849997 11.165761 -17.066384 -2.999804 -24.975511 1.510052 7.743590 25.170366 -0.677417 4.728796 -6.229756 8.479100 -16.460600 -54.270500 13.684319 11.557416 -8.844039 0.314378 -0.181538 3.764602 1.045761 -10.487992 -14.611872 -0.233000 3.106800 -8.576100 12.651998 -6.183469 34.918448 -2.005663 -1.354985 -29.167967 9.902041 -7.792640 5.115636 3.085300 -3.611900 4.536600 -65.953561 -65.143554 41.841709 132.521487 -47.995327 -96.399185 -0.512187 0.914181 9.054883 -7.125000 0.000000 0.000000 20.478544 44.870884 -13.492018 -137.723785 45.247227 -98.996315 1.160811 1.454471 14.982417 7.125000 0.000000 0.000000 
-0.660565 18.499336 4.951197 0.311148 -1.735354 11.259848 -17.197885 -3.016795 -25.116689 1.504068 7.714641 25.098139 -0.675631 4.677168 -5.983660 8.441600 -16.434600 -54.138000 13.553066 11.862550 -9.885602 0.229149 -0.809173 5.381227 0.919525 -9.987552 -14.950379 -0.213500 2.974900 -8.208900 13.270651 -6.316397 34.951643 -1.960968 -1.347689 -28.988302 9.817896 -7.802985 5.705946 3.094500 -3.591600 4.759300 -65.380703 -67.010741 40.730444 128.721252 -49.412388 -93.324033 -0.523242 0.872867 9.504086 -7.125000 0.000000 0.000000 17.022390 45.019661 -15.977937 -134.429308 46.815430 -96.175058 1.207048 1.176732 16.350799 7.125000 0.000000 0.000000 
-0.661838 18.507468 4.922392 0.314912 -1.651942 11.325095 -17.260333 -2.898887 -25.240612 1.493831 7.671378 24.981812 -0.666905 4.575553 -5.643004 8.372200 -16.386300 -53.892400 13.495586 12.094348 -10.615141 0.164293 -1.240546 6.481942 0.862892 -9.770543 -15.095346 -0.206700 2.927000 -8.075600 13.907054 -6.376890 34.796148 -2.045033 -1.332980 -28.957244 9.692502 -7.837456 6.184056 3.073100 -3.598100 4.862800 -65.912146 -68.825268 40.767197 123.971563 -50.935782 -89.285458 -0.521192 0.827705 10.177076 -7.125000 0.000000 0.000000 14.260124 45.035836 -17.741588 -129.912256 48.638566 -92.144630 1.274254 0.899742 18.005163 7.125000 0.000000 0.000000 
-0.657625 18.518931 4.896232 0.360397 -1.600256 11.308157 -17.440651 -2.629071 -25.301254 1.483622 7.618244 24.852790 -0.679485 4.561540 -5.215169 8.463600 -16.449900 -54.215800 13.365605 12.243697 -11.051751 0.120080 -1.523519 7.187018 0.843814 -9.705634 -15.134676 -0.195700 2.848900 -7.858300 14.535487 -6.558269 34.734850 -1.957386 -1.329731 -28.739937 9.665105 -7.876744 6.846043 3.081600 -3.591700 5.083300 -66.604506 -70.840137 40.662202 118.118173 -52.368020 -84.126645 -0.496464 0.763139 11.454597 -7.125000 0.000000 0.000000 10.867107 45.629845 -19.753601 -123.699261 50.729116 -86.275416 1.297355 0.597057 18.853956 7.125000 0.000000 0.000000 
